<?xml version="1.0" encoding="utf-8"?>
<!-- Generator: Adobe Illustrator 26.0.2, SVG Export Plug-In . SVG Version: 6.00 Build 0)  -->
<svg version="1.1" id="Layer_1" xmlns="http://www.w3.org/2000/svg" xmlns:xlink="http://www.w3.org/1999/xlink" x="0px" y="0px"
	 viewBox="0 0 201 215" style="enable-background:new 0 0 201 215;" xml:space="preserve">
<style type="text/css">
	.st0{fill:#FFF2A6;}
	.st1{fill:#FF78B9;}
	.st2{fill:#FFFFFF;}
	.st3{fill:#FD78B7;}
	.st4{fill:#55F085;}
</style>
<g>
	<path class="st0" d="M130.22,30.27C118.61,29.5,114.2,0.34,114.2,0.34s-11.51,29.77-22.48,29.77S66.15,5.36,66.15,5.36
		s3.17,30.15-9.83,30.15s-29.99-6.23-29.99-6.23s18.42,21.38,14.42,36.38s-24.88,17.6-24.88,17.6s21.25,14.39,17.25,30.39
		s-24,24-24,24s12,14,10,28s-19,21-19,21s11-3,23,8s9,19,9,19s15-17,29-16s25,14,25,14s16-12,34-12s25,15,25,15s16-18,35-18
		s20.75-1.8,20.75-1.8s-16.56-44.32-17.91-61.33s14.77-21.04,14.77-21.04s-19.96-2.4-21.04-29.99c-0.88-22.41,12.98-37.6,12.98-37.6
		s-4.08,5.39-20.14,0.45c-22.03-6.78-11.1-31.82-12.77-33.58C156.08,11.03,141.83,31.04,130.22,30.27z"/>
	<polygon points="60.29,52.48 95.07,191.71 113.01,191.71 107.39,169.21 168.62,169.21 174.24,191.71 188.11,191.71 150.55,41.44
		123.45,69.47 74.22,52.82 71.38,41.44 	"/>
	<polyline points="123.47,69.42 74.24,52.77 71.4,41.39 60.31,52.44 95.09,191.66 113.03,191.66 107.41,169.16 168.64,169.16 	"/>
	<polyline points="152.49,49.07 116.87,191.66 103.01,191.66 109.08,167.27 43.77,167.27 37.7,191.66 33.86,191.66 71.41,41.39
		74.24,52.77 137.72,52.77 	"/>
	<polygon class="st1" points="150.56,41.42 113.02,191.7 99.16,191.7 104.78,169.2 39.46,169.2 33.84,191.7 19.98,191.7
		57.53,41.42 71.38,41.42 68.54,52.81 133.86,52.81 136.71,41.42 	"/>
	<polyline class="st2" points="138.62,60.8 114.64,156.76 35.81,156.76 59.79,60.8 138.62,60.8 	"/>
	<path class="st3" d="M75.47,80.02h-6.26c-2.74-0.04-4.54-0.62-6.04-2.36l1.18,3.09l-2.33,2.87c2.33-1.27,4.59-2.19,7.49-2.19v0
		h5.95V80.02z"/>
	<path class="st4" d="M79.78,74.33l7.35,0.03c1.54,0.06,3.14-0.05,4.59-0.62c1.65-0.62,3.97-2.38,5.5-3.27
		c10.35-6.63,24.67-1.33,28.4,10.34c2.52,7.76-0.22,16.14-6.09,21.07c-4.07,3.59-9.62,5.11-14.97,4.81c0,0-3.68-0.01-3.68-0.01
		c-7.45-0.02-22.19-0.09-29.64-0.12c-6.39,0.46-4.48,9.67,1.55,8.47c0.2-0.03,1.94-0.46,2.19-0.52c5.93-1.42,11.95-2.91,17.88-4.28
		c0.83-0.22,2.88-0.59,4.05-0.57c9.68-0.45,17.9,9.09,15.83,18.56c-1.58,8.6-9.95,13.87-18.39,12.04
		c-6.67-0.92-13.65-1.15-20.22,0.44c-4.26,1.01-8.14,2.98-11.68,5.8c-1.38,1.12-3.41,0.9-4.51-0.49c-1.02-1.27-0.9-3.09,0.21-4.22
		c1.85-1.89,3.93-3.67,6.24-5.15c8.54-5.54,18.98-6.75,28.92-6.46c0.94,0.03,2.85,0.14,3.79,0.18c4.67,0.06,6.51-6.37,1.99-8.2
		c-0.68-0.24-1.33-0.28-2.01-0.13c-4.97,1.46-10.16,2.95-15.16,4.4c-1.12,0.32-4.2,1.22-5.3,1.53c-4.63,1.4-9.83,0.8-14.05-1.58
		c-13.62-7.72-11.85-28.04,3.08-33c1.87-0.62,3.85-0.91,5.81-0.9c7.33-0.03,22.08-0.03,29.41,0.02c1.17,0.01,4.37,0.01,5.52,0.02
		c6.96,0,8.43-10.1,1.07-10.9c-0.79-0.01-1.55,0.12-2.28,0.45c-0.32,0.22-0.5,0.23-0.85,0.44c-2.32,1.48-5.07,3.31-7.66,4.2
		C91.56,88.8,85.02,88,79.63,88C70.65,87.51,70.78,74.63,79.78,74.33L79.78,74.33z"/>
	<circle class="st2" cx="79.69" cy="78.39" r="1.6"/>
</g>
</svg>
